<?xml version="1.0" encoding="UTF-8" standalone="no"?>
<svg width="50px" height="25px" viewBox="0 0 50 25" version="1.1" xmlns="http://www.w3.org/2000/svg" xmlns:xlink="http://www.w3.org/1999/xlink" xmlns:sketch="http://www.bohemiancoding.com/sketch/ns">
    <!-- Generator: Sketch 3.4 (15575) - http://www.bohemiancoding.com/sketch -->
    <title>integrations</title>
    <desc>Created with Sketch.</desc>
    <defs></defs>
    <g id="Page-1" stroke="none" stroke-width="1" fill="none" fill-rule="evenodd" sketch:type="MSPage">
        <g id="Warehouses" sketch:type="MSArtboardGroup" transform="translate(-533.000000, -645.000000)">
            <g id="Group" sketch:type="MSLayerGroup" transform="translate(406.000000, 605.000000)">
                <g id="integrations" sketch:type="MSShapeGroup">
                    <g transform="translate(127.000000, 40.000000)">
                        <path d="M2,12.5 L2,12.5 C2,18.2997943 6.70219216,23 12.504234,23 L37.495766,23 C43.302437,23 48,18.3018888 48,12.5 C48,6.70020569 43.2978078,2 37.495766,2 L12.504234,2 C6.69756299,2 2,6.69811122 2,12.5 L2,12.5 Z M0,12.5 C0,5.59644063 5.59009491,0 12.504234,0 L37.495766,0 C44.4016637,0 50,5.59492272 50,12.5 C50,19.4035594 44.4099051,25 37.495766,25 L12.504234,25 C5.59833626,25 0,19.4050773 0,12.5 L0,12.5 Z" id="Shape" fill="#3CC76A"></path>
                        <path d="M36.5,21 C41.1944204,21 45,17.1944204 45,12.5 C45,7.80557963 41.1944204,4 36.5,4 C31.8055796,4 28,7.80557963 28,12.5 C28,17.1944204 31.8055796,21 36.5,21 Z" id="Oval-114" stroke="#3CC76A"></path>
                    </g>
                </g>
            </g>
        </g>
    </g>
</svg>